# xmcd
#
# Track frame offsets:
#	150
#	12043
#	25657
#	47901
#	65241
#	80638
#	95441
#	115026
#	127772
#	144698
#	161466
#
# Disc length: 2289 seconds
#
# Revision: 1
# Processed by: cddbd v1.5.2PL0 Copyright (c) Steve Scherf et al.
# Submitted via: audiograbber 1.83.01
#
DISCID=8908ef0b
DTITLE=Marc Ekins - I Stand Alone
DYEAR=2005
DGENRE=Country
TTITLE0=The Edge
TTITLE1=Disappear
TTITLE2=I Stand Alone
TTITLE3=Make My Dreams Come True
TTITLE4=Sliding Sideways
TTITLE5=Fallen
TTITLE6=Fiction
TTITLE7=Barstool
TTITLE8=Pretty Blue Eyes
TTITLE9=Regular Romeo
TTITLE10=Newfoundland
EXTD=
EXTT0=
EXTT1=
EXTT2=
EXTT3=
EXTT4=
EXTT5=
EXTT6=
EXTT7=
EXTT8=
EXTT9=
EXTT10=
PLAYORDER=
